<svg xmlns="http://www.w3.org/2000/svg" viewBox="0 0 32 32"><defs><style>.cls-2{fill:#ff7f1b}</style></defs><rect width="32" height="32" rx="2" ry="2" fill="#ffd799"/><path class="cls-2" d="M30.93 12.5a1 1 0 0 0-.21-1.05l-2.41-2.54a2.73 2.73 0 0 1-.69-2.58l.83-3.4A1 1 0 0 0 27 1.79L23.89 3.3a2.73 2.73 0 0 1-2.67-.14l-3-1.84a1 1 0 0 0-1.52 1l.46 3.47a2.71 2.71 0 0 1-.95 2.49l-2.67 2.27a1 1 0 0 0-.32 1 1 1 0 0 0 .78.73l3.45.63a2.74 2.74 0 0 1 2.07 1.68l1.33 3.24a.9.9 0 0 0 .29.4 1 1 0 0 0 .58.22 1 1 0 0 0 .94-.52l1.66-3.08a2.7 2.7 0 0 1 2.24-1.45l3.49-.26a1 1 0 0 0 .88-.64zM18.84 4.57a.44.44 0 1 1 .59-.22.45.45 0 0 1-.59.22zm-2.12 6.31a.46.46 0 0 1-.07-.63.45.45 0 0 1 .7.56.46.46 0 0 1-.63.07zM20.09 7a.67.67 0 0 1 .55-1.22.67.67 0 1 1-.55 1.22zm-1 3.34a.68.68 0 0 1-.1-.94.67.67 0 1 1 .1.94zM26 4a.44.44 0 1 1 .28.84A.44.44 0 1 1 26 4zm-1.63 1.87a.66.66 0 0 1 .84.43.67.67 0 0 1-1.27.41.67.67 0 0 1 .43-.84zM22.05 9.6a.94.94 0 0 1-.13-1.32 1 1 0 0 1 1.32-.14 1 1 0 0 1 .14 1.33 1 1 0 0 1-1.33.13zm-.32 2.88a.66.66 0 1 1 .94-.1.67.67 0 0 1-.94.1zm-.06 2.42a.45.45 0 0 1-.06-.63.43.43 0 0 1 .62-.06.44.44 0 0 1 .07.62.46.46 0 0 1-.63.07zm4.11-3.9A.67.67 0 1 1 25 9.9a.67.67 0 0 1 .93.15.66.66 0 0 1-.15.95zm2.32.68a.44.44 0 1 1-.52-.72.44.44 0 0 1 .52.72z"/><path d="M20.63 22.58a.43.43 0 0 1 .43-.43h5.24a.43.43 0 0 1 .43.43.44.44 0 0 1-.43.44h-5.24a.44.44 0 0 1-.43-.44zm9.59 1.75h-7.41a.44.44 0 0 0-.44.43.44.44 0 0 0 .44.44h7.41a.44.44 0 0 0 .44-.44.44.44 0 0 0-.44-.43zm-6.11 2.61h-3.05a.44.44 0 0 0 0 .88h3.05a.44.44 0 1 0 0-.88zm6.11-7.41H28a.44.44 0 1 0 0 .87h2.18a.44.44 0 1 0 0-.87zm-18.73-15H9.3a.44.44 0 0 0-.43.47.43.43 0 0 0 .43.43h2.19a.43.43 0 0 0 .43-.43.44.44 0 0 0-.43-.46zm1.41 12h2.62a.44.44 0 0 0 .44-.43.44.44 0 0 0-.44-.44H12.9a.44.44 0 0 0-.43.44.43.43 0 0 0 .43.39zm-8.85 3a.44.44 0 0 0-.43-.44H1.44a.44.44 0 1 0 0 .88h2.18a.44.44 0 0 0 .43-.44zm24.67 3a.5.5 0 0 0-.5-.5.5.5 0 0 0-.51.5.51.51 0 0 0 .51.51.5.5 0 0 0 .5-.54zM4 23.88a.51.51 0 1 0 0 1 .51.51 0 0 0 0-1zm-1.46 1.88a.51.51 0 0 0-.51.51.51.51 0 0 0 1 0 .51.51 0 0 0-.49-.51z" fill="#ff9300"/><path class="cls-2" d="M3.08 7.45a.79.79 0 0 1 .31-1.07.78.78 0 0 1 1.07.3.79.79 0 0 1-1.38.77zm17 18.32a14.08 14.08 0 0 1-4 3.36 13.69 13.69 0 0 1-5 1.64.35.35 0 0 1-.2 0 .44.44 0 0 1-.38-.22L8 26.05a5.62 5.62 0 0 1 .84-6.54L3.52 9.8A2.92 2.92 0 0 1 3 9.71a2.75 2.75 0 0 1-.59-5.05 2.76 2.76 0 0 1 2.09-.24 2.75 2.75 0 0 1 1.9 3.39c0 .09-.07.17-.1.25l5.37 9.83a5.62 5.62 0 0 1 2.61.05 5.31 5.31 0 0 1 3.32 2.57l2.61 4.67a.43.43 0 0 1-.15.59zm-8.83-5.29a.44.44 0 1 0-.43-.77 4.18 4.18 0 0 0-1.35 1.23 4.22 4.22 0 0 0-.25 4.42.44.44 0 0 0 .38.22.54.54 0 0 0 .21 0 .44.44 0 0 0 .17-.6 3.23 3.23 0 0 1-.27-2.48 3.28 3.28 0 0 1 1.54-2zM3 5.62a1.65 1.65 0 0 0-.78 1 1.65 1.65 0 0 0 2.4 1.9 1.64 1.64 0 0 0 .64-2.25 1.65 1.65 0 0 0-1-.79 1.69 1.69 0 0 0-.45-.07 1.67 1.67 0 0 0-.81.21z"/></svg>